<svg data-name="Icon Graphic - Large" xmlns="http://www.w3.org/2000/svg" width="180" height="180" viewBox="0 0 180 180">
    <circle data-name="Ellipse 499" cx="90" cy="90" r="90" style="fill:#e5eef7"/>
    <circle data-name="Ellipse 507" cx="80" cy="80" r="80" transform="translate(10 10)" style="fill:#fff;opacity:.7"/>
    <path data-name="Path 11768" d="m-28.407-14 16.16 16.16L-4.02-.926l-21.3-21.3zm-6.315 16.83a4.379 4.379 0 0 0 1 4.632 4.367 4.367 0 0 0 3.097 1.288 4.366 4.366 0 0 0 1.538-.278l12.339-4.627L-30.1-9.5zm20.312-36.545a4.417 4.417 0 0 0-4.02-1.185 4.38 4.38 0 0 0-3.17 2.734l-2.034 5.437L.483-2.611l5.434-2.037a4.374 4.374 0 0 0 2.739-3.171 4.389 4.389 0 0 0-1.184-4.021L-14.41-33.715zm4.566-5.66a3.264 3.264 0 0 0 2.1-.76A21.469 21.469 0 0 0 0-56.665v-1.3a3.259 3.259 0 0 0-3.16-3.285 3.259 3.259 0 0 0-3.158 3.281v1.3A14.907 14.907 0 0 1-11.7-45.177a3.117 3.117 0 0 0-.659 4.626 3.24 3.24 0 0 0 2.515 1.176zM-26.25-52.623A4.244 4.244 0 0 0-22-56.875a4.243 4.243 0 0 0-4.252-4.252 4.349 4.349 0 0 0-4.375 4.252 4.272 4.272 0 0 0 4.377 4.252zM31.6-26.25h-1.3a21.421 21.421 0 0 0-16.4 7.738 3.28 3.28 0 0 0 .419 4.622 3.151 3.151 0 0 0 1.974.764A3.275 3.275 0 0 0 18.8-14.3a15.333 15.333 0 0 1 11.62-5.387h1.3a3.179 3.179 0 0 0 3.158-3.281A3.214 3.214 0 0 0 31.6-26.25zM18.279-37.187c2.855-3.346 2.648-6.588 2.5-8.955-.132-2.047-.145-3 .936-4.268s2.021-1.393 4.055-1.576c2.358-.214 5.593-.5 8.455-3.85a3.282 3.282 0 0 0-.363-4.627 3.294 3.294 0 0 0-4.627.363c-1.077 1.26-2.021 1.393-4.055 1.576-2.358.214-5.593.5-8.455 3.85s-2.648 6.588-2.5 8.955c.132 2.047.145 3-.936 4.268s-2.017 1.389-4.046 1.572c-2.358.209-5.593.5-8.451 3.84a3.288 3.288 0 0 0 .356 4.639 3.246 3.246 0 0 0 2.01.779 3.268 3.268 0 0 0 2.5-1.149c1.072-1.256 2.017-1.389 4.041-1.572 2.483-.209 5.709-.496 8.58-3.845zM30.5-4.375a4.244 4.244 0 0 0-4.25 4.252 4.244 4.244 0 0 0 4.25 4.252 4.325 4.325 0 0 0 4.254-4.252A4.09 4.09 0 0 0 30.5-4.375zm0-39.375a4.244 4.244 0 0 0-4.25 4.25 4.244 4.244 0 0 0 4.25 4.254 4.325 4.325 0 0 0 4.254-4.254 4.09 4.09 0 0 0-4.254-4.25z" transform="translate(90 116)" style="fill:#005bac"/>
</svg>
