<svg data-name="Icon Graphic - Small" xmlns="http://www.w3.org/2000/svg" width="110" height="110" viewBox="0 0 110 110">
    <circle data-name="Ellipse 499" cx="55" cy="55" r="55" style="fill:#e5eef7"/>
    <circle data-name="Ellipse 508" cx="45" cy="45" r="45" transform="translate(10 10)" style="fill:#fff;opacity:.7"/>
    <path data-name="Path 11767" d="M-8.117-32.019a1.876 1.876 0 0 1 .133 2.648l-5.622 6.253a1.607 1.607 0 0 1-1.345.547 1.465 1.465 0 0 1-1.375-.547l-3.125-3.125a1.794 1.794 0 0 1 0-2.584 1.875 1.875 0 0 1 2.652 0l1.727 1.724 4.306-4.778a1.875 1.875 0 0 1 2.648-.139zm0 12.5a1.876 1.876 0 0 1 .133 2.648l-5.622 6.25a1.607 1.607 0 0 1-1.345.547 1.465 1.465 0 0 1-1.375-.547l-3.125-3.125a1.8 1.8 0 0 1 0-2.586 1.885 1.885 0 0 1 2.652 0l1.727 1.727 4.306-4.781a1.876 1.876 0 0 1 2.648-.133zM-2.5-27.5A2.5 2.5 0 0 1 0-30h17.5a2.5 2.5 0 0 1 2.5 2.5 2.5 2.5 0 0 1-2.5 2.5H0a2.5 2.5 0 0 1-2.5-2.5zm0 12.5A2.5 2.5 0 0 1 0-17.5h17.5A2.5 2.5 0 0 1 20-15a2.5 2.5 0 0 1-2.5 2.5H0A2.5 2.5 0 0 1-2.5-15zm-5 12.5A2.5 2.5 0 0 1-5-5h22.5A2.5 2.5 0 0 1 20-2.5 2.5 2.5 0 0 1 17.5 0H-5a2.5 2.5 0 0 1-2.5-2.5zm-12.5 0a3.75 3.75 0 0 1 3.75-3.75A3.75 3.75 0 0 1-12.5-2.5a3.75 3.75 0 0 1-3.75 3.75A3.75 3.75 0 0 1-20-2.5z" transform="translate(55 70)" style="fill:#005bac"/>
</svg>
