<svg xmlns="http://www.w3.org/2000/svg" width="18" height="20.133" viewBox="0 0 18 20.133">
    <path d="M16.106 4.939a4.674 4.674 0 0 0-3.66-1.194 6.085 6.085 0 0 0-2.482.879 2.659 2.659 0 0 1 .427-1.791 2.182 2.182 0 0 1 1.757-.614 1.109 1.109 0 0 0 0-2.218 4.248 4.248 0 0 0-3.481 1.433 4.628 4.628 0 0 0-.938 3.02 5.645 5.645 0 0 0-2.169-.709A4.674 4.674 0 0 0 1.9 4.939 6.733 6.733 0 0 0 0 10.006c0 3.472 2.175 10.007 6.338 10.126h.154A6 6 0 0 0 9 19.56a6.137 6.137 0 0 0 2.662.572C15.825 20.013 18 13.478 18 10.006a6.733 6.733 0 0 0-1.9-5.067zm-4.5 12.975a3.827 3.827 0 0 1-2.039-.563 1.118 1.118 0 0 0-1.109 0 3.827 3.827 0 0 1-2.039.563c-2.414-.068-4.189-5.246-4.189-7.908a4.7 4.7 0 0 1 1.191-3.437 2.39 2.39 0 0 1 1.689-.623c.094 0 .188 0 .282.009a6.063 6.063 0 0 1 2.422 1.134c.239.162.461.3.64.409A1.118 1.118 0 0 0 9.56 7.5q.282-.166.64-.409a6.063 6.063 0 0 1 2.423-1.135 2.448 2.448 0 0 1 1.971.614 4.675 4.675 0 0 1 1.186 3.438c0 2.662-1.766 7.84-4.18 7.908z"/>
</svg>
