<svg data-name="Icon Graphic - Large" xmlns="http://www.w3.org/2000/svg" width="180" height="180" viewBox="0 0 180 180">
    <circle data-name="Ellipse 499" cx="90" cy="90" r="90" style="fill:#e5eef7"/>
    <circle data-name="Ellipse 507" cx="80" cy="80" r="80" transform="translate(10 10)" style="fill:#fff;opacity:.7"/>
    <path data-name="Path 11773" d="M28.779-49.805 2.529-60.743a7.837 7.837 0 0 0-2.521-.506 7.856 7.856 0 0 0-2.524.506l-26.248 10.938a6.511 6.511 0 0 0-4.048 5.932C-32.812-8.586-6.945 8.75-.014 8.75c7 0 32.826-17.527 32.826-52.623a6.521 6.521 0 0 0-4.033-5.932zm-15.654 15.9a3.273 3.273 0 0 1-.79 2.136L-.79-16.458a3.047 3.047 0 0 1-2.491 1.023A3.287 3.287 0 0 1-5.6-16.4l-6.562-6.562a2.88 2.88 0 0 1-.961-2.32 3.283 3.283 0 0 1 3.281-3.281 3.272 3.272 0 0 1 2.32.961l4.059 4.059L7.354-36.165a3.279 3.279 0 0 1 2.494-1.143 3.45 3.45 0 0 1 3.277 3.402z" transform="translate(90 116)" style="fill:#005bac"/>
</svg>
