<svg data-name="Icon Graphic - Small" xmlns="http://www.w3.org/2000/svg" width="110" height="110" viewBox="0 0 110 110">
    <circle data-name="Ellipse 499" cx="55" cy="55" r="55" style="fill:#e5eef7"/>
    <circle data-name="Ellipse 508" cx="45" cy="45" r="45" transform="translate(10 10)" style="fill:#fff;opacity:.7"/>
    <path data-name="Path 11786" d="M3.789-17.5H12.5a2.356 2.356 0 0 1 2.273 1.617 2.386 2.386 0 0 1-.625 2.766l-20 17.5a2.505 2.505 0 0 1-3.118.141 2.5 2.5 0 0 1-.83-3.008L-3.789-12.5h-8.781a2.485 2.485 0 0 1-2.27-1.617 2.507 2.507 0 0 1 .694-2.766l20-17.5a2.5 2.5 0 0 1 3.117-.141 2.5 2.5 0 0 1 .829 3.009L3.789-17.5z" transform="translate(55 70)" style="fill:#005bac"/>
</svg>
