<svg data-name="Circle Icon - Small" xmlns="http://www.w3.org/2000/svg" width="30" height="30" viewBox="0 0 30 30">
    <circle data-name="Ellipse 466" cx="15" cy="15" r="15" style="fill:#e5eef7"/>
    <path data-name="Path 11803" d="M5.806-8.753a1.415 1.415 0 0 0-1.237-.716h-2.95l.9-2.734a1.425 1.425 0 0 0-.247-1.241A1.434 1.434 0 0 0 1.131-14h-4.078a1.408 1.408 0 0 0-1.4 1.159l-1.637 6.632a1.507 1.507 0 0 0 .353 1.194A1.5 1.5 0 0 0-4.5-4.5h3.066L-2.525.241a1.426 1.426 0 0 0 .269 1.216A1.415 1.415 0 0 0-1.134 2a1.41 1.41 0 0 0 1.212-.675L5.8-7.322a1.406 1.406 0 0 0 .006-1.431zM-1 .294.45-6h-4.966l1.569-6.5 3.987-.028-1.493 4.559h4.89z" transform="translate(15 21.4)" style="fill:#005bac"/>
</svg>
