<svg data-name="Icon Graphic - Large" xmlns="http://www.w3.org/2000/svg" width="180" height="180" viewBox="0 0 180 180">
    <circle data-name="Ellipse 499" cx="90" cy="90" r="90" style="fill:#e5eef7"/>
    <circle data-name="Ellipse 507" cx="80" cy="80" r="80" transform="translate(10 10)" style="fill:#fff;opacity:.7"/>
    <path data-name="Path 11769" d="M19.688-61.25a6.563 6.563 0 0 1 6.563 6.563V2.188a6.564 6.564 0 0 1-6.563 6.562H6.563V-2.187A6.564 6.564 0 0 0 0-8.75a6.564 6.564 0 0 0-6.562 6.563V8.75h-13.125a6.563 6.563 0 0 1-6.563-6.562v-56.875a6.562 6.562 0 0 1 6.563-6.562zM-17.5-24.062a2.19 2.19 0 0 0 2.188 2.188h4.375a2.194 2.194 0 0 0 2.187-2.188v-4.375a2.194 2.194 0 0 0-2.187-2.187h-4.375a2.19 2.19 0 0 0-2.188 2.187zm15.313-6.562a2.194 2.194 0 0 0-2.187 2.188v4.375a2.194 2.194 0 0 0 2.188 2.188h4.374a2.194 2.194 0 0 0 2.188-2.187v-4.375a2.194 2.194 0 0 0-2.187-2.187zM8.75-24.062a2.194 2.194 0 0 0 2.188 2.188h4.375a2.194 2.194 0 0 0 2.187-2.188v-4.375a2.194 2.194 0 0 0-2.187-2.187h-4.375a2.194 2.194 0 0 0-2.188 2.187zm-24.062-24.063a2.19 2.19 0 0 0-2.188 2.188v4.375a2.19 2.19 0 0 0 2.188 2.188h4.375a2.194 2.194 0 0 0 2.187-2.188v-4.375a2.194 2.194 0 0 0-2.187-2.187zm10.938 6.563a2.194 2.194 0 0 0 2.188 2.188h4.374a2.194 2.194 0 0 0 2.188-2.187v-4.375a2.194 2.194 0 0 0-2.187-2.187h-4.376a2.194 2.194 0 0 0-2.187 2.188zm15.313-6.562a2.194 2.194 0 0 0-2.189 2.187v4.375a2.194 2.194 0 0 0 2.188 2.188h4.375a2.194 2.194 0 0 0 2.187-2.188v-4.375a2.194 2.194 0 0 0-2.187-2.187z" transform="translate(90 116)" style="fill:#005bac"/>
</svg>
