<svg data-name="Icon Graphic - Small" xmlns="http://www.w3.org/2000/svg" width="110" height="110" viewBox="0 0 110 110">
    <circle data-name="Ellipse 499" cx="55" cy="55" r="55" style="fill:#e5eef7"/>
    <circle data-name="Ellipse 508" cx="45" cy="45" r="45" transform="translate(10 10)" style="fill:#fff;opacity:.7"/>
    <path data-name="Path 11797" d="M19.062-21.25h-4.678l-1.3-3.25A8.706 8.706 0 0 0 4.961-30h-9.922a8.708 8.708 0 0 0-8.124 5.5l-1.3 3.25h-4.677a.937.937 0 0 0-.909 1.165l.469 1.875a.937.937 0 0 0 .909.71h1.568a4.965 4.965 0 0 0-1.725 3.75V-10a4.959 4.959 0 0 0 1.25 3.276V-2.5A2.5 2.5 0 0 0-15 0h2.5A2.5 2.5 0 0 0-10-2.5V-5h20v2.5A2.5 2.5 0 0 0 12.5 0H15a2.5 2.5 0 0 0 2.5-2.5v-4.224A4.956 4.956 0 0 0 18.75-10v-3.75a4.967 4.967 0 0 0-1.724-3.75h1.568a.937.937 0 0 0 .909-.71l.469-1.875a.938.938 0 0 0-.91-1.165zm-27.5-1.393A3.75 3.75 0 0 1-4.961-25h9.922a3.75 3.75 0 0 1 3.482 2.357L10-18.75h-20zM-12.5-10.016a2.358 2.358 0 0 1-2.5-2.492A2.358 2.358 0 0 1-12.5-15c1.5 0 3.75 2.243 3.75 3.738s-2.25 1.246-3.75 1.246zm25 0c-1.5 0-3.75.249-3.75-1.246S11-15 12.5-15a2.358 2.358 0 0 1 2.5 2.492 2.358 2.358 0 0 1-2.5 2.492z" transform="translate(55 70)" style="fill:#005bac"/>
</svg>
