<svg data-name="Icon Graphic - Large" xmlns="http://www.w3.org/2000/svg" width="180" height="180" viewBox="0 0 180 180">
    <circle data-name="Ellipse 499" cx="90" cy="90" r="90" style="fill:#e5eef7"/>
    <circle data-name="Ellipse 507" cx="80" cy="80" r="80" transform="translate(10 10)" style="fill:#fff;opacity:.7"/>
    <path data-name="Path 11762" d="M-39.375-2.187a6.564 6.564 0 0 0 6.562 6.562h65.625a6.564 6.564 0 0 0 6.562-6.562V-26.25h-78.75zm26.25-9.3a1.646 1.646 0 0 1 1.641-1.641H7.109a1.646 1.646 0 0 1 1.641 1.644v5.469a1.646 1.646 0 0 1-1.641 1.64h-18.593a1.646 1.646 0 0 1-1.641-1.641zm-17.5 0a1.646 1.646 0 0 1 1.641-1.641h9.844a1.646 1.646 0 0 1 1.64 1.644v5.469a1.646 1.646 0 0 1-1.641 1.641h-9.844a1.646 1.646 0 0 1-1.641-1.641zm70-38.828a6.564 6.564 0 0 0-6.562-6.562h-65.626a6.564 6.564 0 0 0-6.562 6.562v6.562h78.75z" transform="translate(90 116)" style="fill:#005bac"/>
</svg>
