<svg data-name="Icon Graphic - Large" xmlns="http://www.w3.org/2000/svg" width="180" height="180" viewBox="0 0 180 180">
    <circle data-name="Ellipse 499" cx="90" cy="90" r="90" style="fill:#e5eef7"/>
    <circle data-name="Ellipse 507" cx="80" cy="80" r="80" transform="translate(10 10)" style="fill:#fff;opacity:.7"/>
    <path data-name="Path 11775" d="M6.562 0h-43.75a2.187 2.187 0 0 0-2.187 2.187v4.375a2.187 2.187 0 0 0 2.187 2.188h43.75A2.187 2.187 0 0 0 8.75 6.562V2.187A2.187 2.187 0 0 0 6.562 0zM35-43.75v-6.562a2.187 2.187 0 0 0-2.188-2.188 2.187 2.187 0 0 0-2.187 2.187v6.562H26.25v-6.562a2.187 2.187 0 0 0-2.188-2.187 2.187 2.187 0 0 0-2.187 2.187v6.562h-2.188a2.187 2.187 0 0 0-2.187 2.189v4.375a10.9 10.9 0 0 0 7.656 10.381v16.2a3.981 3.981 0 0 1-3.18 3.991 3.834 3.834 0 0 1-4.476-3.776v-3.828A12.031 12.031 0 0 0 5.469-26.25H4.375V-52.5a8.749 8.749 0 0 0-8.75-8.75H-26.25A8.749 8.749 0 0 0-35-52.5v48.125H4.375v-15.312h1.094a5.469 5.469 0 0 1 5.469 5.469v3.365A10.7 10.7 0 0 0 20.29-.052a10.4 10.4 0 0 0 11.429-10.339v-16.415a10.9 10.9 0 0 0 7.656-10.381v-4.375a2.187 2.187 0 0 0-2.187-2.187zm-38.816 6.53-12.811 19a1.7 1.7 0 0 1-1.42.716 1.5 1.5 0 0 1-1.6-1.766l3.147-11.355h-8.114a1.516 1.516 0 0 1-1.626-1.626l2.187-14.629a1.583 1.583 0 0 1 1.626-1.246h9.3a1.49 1.49 0 0 1 1.586 1.806l-1.586 6.944h7.889a1.446 1.446 0 0 1 1.422 2.156z" transform="translate(90 116)" style="fill:#005bac"/>
</svg>
