<svg data-name="Circle Icon - Small" xmlns="http://www.w3.org/2000/svg" width="30" height="30" viewBox="0 0 30 30">
    <circle data-name="Ellipse 466" cx="15" cy="15" r="15" style="fill:#e5eef7"/>
    <path data-name="Path 11805" d="M2-14c-3.312 0-6 1.119-6 2.5v1.644c-2.328.344-4 1.269-4 2.356v7C-8 .881-5.313 2-2 2S4 .881 4-.5v-1.647C6.328-2.491 8-3.412 8-4.5v-7C8-12.881 5.312-14 2-14zM2.5-.616C2.187-.25.612.5-2 .5S-6.188-.25-6.5-.616V-1.85A10.97 10.97 0 0 0-2-1a10.97 10.97 0 0 0 4.5-.85zm0-3C2.187-3.25.612-2.5-2-2.5s-4.187-.75-4.5-1.116v-1.4A9.377 9.377 0 0 0-2-4a9.413 9.413 0 0 0 4.5-1.019zM-2-5.5c-2.484 0-4.5-.672-4.5-1.5S-4.484-8.5-2-8.5s4.5.672 4.5 1.5S.484-5.5-2-5.5zm8.5.884a5.038 5.038 0 0 1-2.5.95v-1.49a9.1 9.1 0 0 0 2.5-.694zm0-3a5.038 5.038 0 0 1-2.5.95V-7.5a1.21 1.21 0 0 0-.212-.653A8.123 8.123 0 0 0 6.5-9.022zM2-9.5c-.156 0-.306-.009-.459-.016a11.9 11.9 0 0 0-2.825-.466C-2.031-10.25-2.5-10.606-2.5-11c0-.828 2.016-1.5 4.5-1.5s4.5.672 4.5 1.5S4.484-9.5 2-9.5z" transform="translate(15 21.4)" style="fill:#005bac"/>
</svg>
