<svg data-name="Icon Graphic - Small" xmlns="http://www.w3.org/2000/svg" width="110" height="110" viewBox="0 0 110 110">
    <circle data-name="Ellipse 499" cx="55" cy="55" r="55" style="fill:#e5eef7"/>
    <circle data-name="Ellipse 508" cx="45" cy="45" r="45" transform="translate(10 10)" style="fill:#fff;opacity:.7"/>
    <path data-name="Path 11763" d="M17.5-35a5 5 0 0 0-5 5 5 5 0 0 0 5 5 5 5 0 0 0 5-5 5 5 0 0 0-5-5zm-36.227 11.352 16.578 12.9a3.5 3.5 0 0 0 4.3 0l15.134-11.768A7.5 7.5 0 0 1 10-30h-26.25A3.75 3.75 0 0 0-20-26.25a3.3 3.3 0 0 0 1.273 2.6zM0-7.5a5.967 5.967 0 0 1-3.685-1.273L-20-21.461V-3.75A3.75 3.75 0 0 0-16.25 0h32.5A3.75 3.75 0 0 0 20-3.75v-17.711L3.688-8.766A6.009 6.009 0 0 1 0-7.5z" transform="translate(55 70)" style="fill:#005bac"/>
</svg>
