<svg data-name="Icon Graphic - Large" xmlns="http://www.w3.org/2000/svg" width="180" height="180" viewBox="0 0 180 180">
    <circle data-name="Ellipse 499" cx="90" cy="90" r="90" style="fill:#e5eef7"/>
    <circle data-name="Ellipse 507" cx="80" cy="80" r="80" transform="translate(10 10)" style="fill:#fff;opacity:.7"/>
    <path data-name="Path 11826" d="M0 8.75a35 35 0 0 0 30.311-17.5 35 35 0 0 0 0-35A35 35 0 0 0 0-61.25a35 35 0 0 0-30.311 17.5 35 35 0 0 0 0 35A35 35 0 0 0 0 8.75zm0-52.5a3.273 3.273 0 0 1 3.281 3.281v15.313A3.273 3.273 0 0 1 0-21.875a3.273 3.273 0 0 1-3.281-3.281v-15.313A3.273 3.273 0 0 1 0-43.75zm-4.375 30.625A4.375 4.375 0 0 1 0-17.5a4.375 4.375 0 0 1 4.375 4.375A4.375 4.375 0 0 1 0-8.75a4.375 4.375 0 0 1-4.375-4.375z" transform="translate(90 116)" style="fill:#005bac"/>
</svg>
