<svg data-name="Circle Icon - Small" xmlns="http://www.w3.org/2000/svg" width="30" height="30" viewBox="0 0 30 30">
    <circle data-name="Ellipse 466" cx="15" cy="15" r="15" style="fill:#e5eef7"/>
    <path data-name="Path 11804" d="M0-13.75A7.751 7.751 0 0 0-7.75-6 7.75 7.75 0 0 0 0 1.75 7.75 7.75 0 0 0 7.75-6 7.751 7.751 0 0 0 0-13.75zm0 14A6.246 6.246 0 0 1-6.25-6 6.248 6.248 0 0 1 0-12.25 6.248 6.248 0 0 1 6.25-6 6.246 6.246 0 0 1 0 .25zm0-10.562A1.312 1.312 0 0 0-1.313-9 1.312 1.312 0 0 0 0-7.687 1.312 1.312 0 0 0 1.312-9 1.312 1.312 0 0 0 0-10.312zm1.75 7.937v-.75a.375.375 0 0 0-.375-.375H1v-3.125A.375.375 0 0 0 .625-7h-2a.375.375 0 0 0-.375.375v.75a.375.375 0 0 0 .375.375H-1v2h-.375a.375.375 0 0 0-.375.375v.75A.375.375 0 0 0-1.375-2h2.75a.375.375 0 0 0 .375-.375z" transform="translate(15 21.4)" style="fill:#005bac"/>
</svg>
