<svg data-name="Icon Graphic - Large" xmlns="http://www.w3.org/2000/svg" width="180" height="180" viewBox="0 0 180 180">
    <circle data-name="Ellipse 499" cx="90" cy="90" r="90" style="fill:#e5eef7"/>
    <circle data-name="Ellipse 507" cx="80" cy="80" r="80" transform="translate(10 10)" style="fill:#fff;opacity:.7"/>
    <path data-name="Path 11784" d="M17.5-56.875a4.384 4.384 0 0 0-4.375-4.375 4.384 4.384 0 0 0-4.375 4.375v13.125h8.75zM24.063-39.5h-48.125a2.181 2.181 0 0 0-2.187 2.188v4.375a2.181 2.181 0 0 0 2.188 2.188h2.188v4.5A21.882 21.882 0 0 0-4.375-4.813V8.75h8.75V-4.819a21.869 21.869 0 0 0 17.5-21.431v-4.5h2.188a2.181 2.181 0 0 0 2.188-2.187v-4.375a2.258 2.258 0 0 0-2.188-2.188zM-8.75-56.875a4.384 4.384 0 0 0-4.375-4.375 4.384 4.384 0 0 0-4.375 4.375v13.125h8.75v-13.125z" transform="translate(90 116)" style="fill:#005bac"/>
</svg>
