<svg data-name="Icon Graphic - Small" xmlns="http://www.w3.org/2000/svg" width="110" height="110" viewBox="0 0 110 110">
    <circle data-name="Ellipse 499" cx="55" cy="55" r="55" style="fill:#e5eef7"/>
    <circle data-name="Ellipse 508" cx="45" cy="45" r="45" transform="translate(10 10)" style="fill:#fff;opacity:.7"/>
    <path data-name="Path 11765" d="M19.086-.336 9.734-9.687a16.244 16.244 0 0 0 2.614-11.3A16.34 16.34 0 0 0-1.625-34.865a16.263 16.263 0 0 0-18.24 18.24A16.336 16.336 0 0 0-5.99-2.648a16.242 16.242 0 0 0 11.3-2.614l9.352 9.352a3.127 3.127 0 0 0 4.42-4.425zM-13.82-18.75a10.011 10.011 0 0 1 10-10 10.011 10.011 0 0 1 10 10 10.011 10.011 0 0 1-10 10 10.01 10.01 0 0 1-10-10z" transform="translate(55 70)" style="fill:#005bac"/>
</svg>
