<svg data-name="Icon Graphic - Small" xmlns="http://www.w3.org/2000/svg" width="110" height="110" viewBox="0 0 110 110">
    <circle data-name="Ellipse 499" cx="55" cy="55" r="55" style="fill:#e5eef7"/>
    <circle data-name="Ellipse 508" cx="45" cy="45" r="45" transform="translate(10 10)" style="fill:#fff;opacity:.7"/>
    <path data-name="Path 11791" d="M-13.125-31.25a1.873 1.873 0 0 1 1.875 1.875v3.75a1.871 1.871 0 0 1-1.875 1.875h-3.75a1.873 1.873 0 0 1-1.875-1.875v-3.75a1.875 1.875 0 0 1 1.875-1.875zM17.5-30a2.5 2.5 0 0 1 2.5 2.5 2.5 2.5 0 0 1-2.5 2.5H-5a2.5 2.5 0 0 1-2.5-2.5A2.5 2.5 0 0 1-5-30zm0 12.5A2.5 2.5 0 0 1 20-15a2.5 2.5 0 0 1-2.5 2.5H-5A2.5 2.5 0 0 1-7.5-15 2.5 2.5 0 0 1-5-17.5zm0 12.5A2.5 2.5 0 0 1 20-2.5 2.5 2.5 0 0 1 17.5 0H-5a2.5 2.5 0 0 1-2.5-2.5A2.5 2.5 0 0 1-5-5zm-36.25-11.875a1.873 1.873 0 0 1 1.875-1.875h3.75a1.871 1.871 0 0 1 1.875 1.875v3.75a1.871 1.871 0 0 1-1.875 1.875h-3.75a1.873 1.873 0 0 1-1.875-1.875zm5.625 10.625a1.871 1.871 0 0 1 1.875 1.875v3.75a1.871 1.871 0 0 1-1.875 1.875h-3.75A1.873 1.873 0 0 1-18.75-.625v-3.75a1.873 1.873 0 0 1 1.875-1.875z" transform="translate(55 70)" style="fill:#005bac"/>
</svg>
