<svg data-name="Icon Graphic - Large" xmlns="http://www.w3.org/2000/svg" width="180" height="180" viewBox="0 0 180 180">
    <circle data-name="Ellipse 499" cx="90" cy="90" r="90" style="fill:#e5eef7"/>
    <circle data-name="Ellipse 507" cx="80" cy="80" r="80" transform="translate(10 10)" style="fill:#fff;opacity:.7"/>
    <path data-name="Path 11776" d="M34.891-8.34 31.712 5.441a4.249 4.249 0 0 1-4.164 3.311A62.618 62.618 0 0 1-35-53.8a4.247 4.247 0 0 1 3.311-4.163l13.781-3.179a4.291 4.291 0 0 1 4.892 2.477l6.36 14.834a4.279 4.279 0 0 1-1.228 4.983l-7.361 5.91A47.8 47.8 0 0 0 6.563-11.129l6.027-7.355a4.253 4.253 0 0 1 4.986-1.227l14.834 6.359a4.663 4.663 0 0 1 2.481 5.012z" transform="translate(90 117)" style="fill:#005bac"/>
</svg>
