<svg data-name="Icon Graphic - Small" xmlns="http://www.w3.org/2000/svg" width="120" height="120" viewBox="0 0 120 120">
    <circle data-name="Ellipse 499" cx="60" cy="60" r="60" style="fill:#e5eef7"/>
    <circle data-name="Ellipse 508" cx="50" cy="50" r="50" transform="translate(10 10)" style="fill:#fff;opacity:.7"/>
    <path data-name="Path 11793" d="M-13.75-17.5a1.245 1.245 0 0 0 1.25-1.25V-20A12.512 12.512 0 0 1 0-32.5 12.512 12.512 0 0 1 12.5-20v1.25a6.258 6.258 0 0 1-6.25 6.25h-2.5a2.505 2.505 0 0 0-2.5-2.5h-2.5a2.505 2.505 0 0 0-2.5 2.5 2.505 2.505 0 0 0 2.5 2.5h7.5A8.759 8.759 0 0 0 15-18.75V-20A15.015 15.015 0 0 0 0-35a15.017 15.017 0 0 0-15 15v1.25a1.245 1.245 0 0 0 1.25 1.25zm12.5 0h2.5A4.99 4.99 0 0 1 5.575-15h.675A3.737 3.737 0 0 0 10-18.68V-20A9.994 9.994 0 0 0 0-30a9.994 9.994 0 0 0-10 10 9.952 9.952 0 0 0 3.779 7.773 1.888 1.888 0 0 1-.029-.273 5 5 0 0 1 5-5zm8.336 10H-7.086A10.416 10.416 0 0 0-17.5 2.914 2.082 2.082 0 0 0-15.417 5h30.831A2.081 2.081 0 0 0 17.5 2.914 10.416 10.416 0 0 0 7.086-7.5z" transform="translate(60 75)" style="fill:#005bac"/>
</svg>
