<svg data-name="Swarco Logo" xmlns="http://www.w3.org/2000/svg" width="242.368" height="56.023" viewBox="0 0 242.368 56.023">
    <defs>
        <clipPath id="cpfif7es1a">
            <path data-name="Rectangle 5254" style="fill:#005bac" d="M0 0h242.368v56.023H0z"/>
        </clipPath>
    </defs>
    <g data-name="Group 17865" style="clip-path:url(#cpfif7es1a)">
        <path data-name="Path 11746" d="M286.85 30.817a9.535 9.535 0 0 0-2.792-3.562 12.331 12.331 0 0 0-4.276-2.1 19.9 19.9 0 0 0-5.381-.695 17.368 17.368 0 0 0-6.865 1.312 15.34 15.34 0 0 0-8.463 8.854 18.031 18.031 0 0 0-1.136 6.39c0 3.82 1.225 7.007 3.641 8.937 2.39 1.907 5.613 2.874 9.579 2.874a18.046 18.046 0 0 0 6.992-1.288 16.029 16.029 0 0 0 5.247-3.822 15.514 15.514 0 0 0 3.3-5.329 18.741 18.741 0 0 0 1.134-6.537 12 12 0 0 0-.986-5.034m-7.977 8.591a12.421 12.421 0 0 1-1.439 3.425 8.669 8.669 0 0 1-2.429 2.589 5.925 5.925 0 0 1-3.469 1 5.159 5.159 0 0 1-2.209-.442 4.627 4.627 0 0 1-1.594-1.178 4.944 4.944 0 0 1-.976-1.716 6.529 6.529 0 0 1-.328-2.075 13.791 13.791 0 0 1 .474-3.435 12.467 12.467 0 0 1 1.412-3.374 8.416 8.416 0 0 1 2.4-2.56 5.839 5.839 0 0 1 3.416-1.011c1.915 0 3.273.474 4.037 1.407a6.026 6.026 0 0 1 1.179 3.907 14.156 14.156 0 0 1-.471 3.458" transform="translate(-111.478 -10.571)" style="fill:#005bac"/>
        <path data-name="Path 11747" d="M204.457 34.186a8.429 8.429 0 0 1 2.4-2.56 5.844 5.844 0 0 1 3.416-1.01c1.914 0 3.273.474 4.037 1.406a6.026 6.026 0 0 1 1.179 3.907l8.49-.1a12 12 0 0 0-.985-5.035 9.514 9.514 0 0 0-2.794-3.561 12.3 12.3 0 0 0-4.274-2.1 19.862 19.862 0 0 0-5.381-.7 77.473 77.473 0 0 0-11.209.544 17.5 17.5 0 0 0-6.281 1.626 12.543 12.543 0 0 0-3.8 2.569l.936-3.759h-8.438l-6.132 26.33h8.761l2.581-11.131a19 19 0 0 1 1.021-3.053 9.026 9.026 0 0 1 1.672-2.555 7.588 7.588 0 0 1 2.572-1.768 9.624 9.624 0 0 1 3.761-.654h.154a16.471 16.471 0 0 0-.923 2.015 18.034 18.034 0 0 0-1.134 6.39c0 3.82 1.224 7.008 3.64 8.937 2.392 1.908 5.615 2.874 9.58 2.874a18.029 18.029 0 0 0 6.992-1.288 16.041 16.041 0 0 0 5.247-3.822 18.412 18.412 0 0 0 3.544-5.848l-9.126.032a8.437 8.437 0 0 1-2.811 3.523 5.927 5.927 0 0 1-3.468 1 5.172 5.172 0 0 1-2.209-.442 4.645 4.645 0 0 1-1.6-1.179 4.949 4.949 0 0 1-.974-1.716 6.487 6.487 0 0 1-.329-2.075 13.8 13.8 0 0 1 .475-3.435 12.5 12.5 0 0 1 1.412-3.374" transform="translate(-75.9 -10.549)" style="fill:#005bac"/>
        <path data-name="Path 11748" d="M96.847 50.45c0-.492.028-1.066.085-1.71a7.1 7.1 0 0 1 .3-1.623l2.645-10.191a17.84 17.84 0 0 0 .646-4.347 5.162 5.162 0 0 0-1.223-3.737 8.2 8.2 0 0 0-3.171-2.113A16.78 16.78 0 0 0 92 25.747a39.36 39.36 0 0 0-4.239-.246c-.209 0-.416.009-.622.014l-.011-.014-21.122.279-8.594 16.909-.906-16.9h-8.644l-8.3 17.027-1.044-17.082-22.987-.345a34.848 34.848 0 0 0-6.211.45 15.134 15.134 0 0 0-4.278 1.33A8.364 8.364 0 0 0 1.914 29.8a7.316 7.316 0 0 0-1.2 4.306 5.3 5.3 0 0 0 .881 3.085 7 7 0 0 0 2.271 2.059A13.273 13.273 0 0 0 7 40.531c1.163.32 2.351.6 3.536.827a55.8 55.8 0 0 1 6.8 1.575c1.442.466 2.174 1.136 2.174 1.992a1.943 1.943 0 0 1-.425 1.3 3.447 3.447 0 0 1-1.162.885 6.43 6.43 0 0 1-1.634.512 9.705 9.705 0 0 1-1.749.17 10.418 10.418 0 0 1-2.258-.244 6.143 6.143 0 0 1-1.867-.715A4.086 4.086 0 0 1 9.12 45.62a3.018 3.018 0 0 1-.48-1.734v-.408H0l.019.426a8.126 8.126 0 0 0 1.435 4.513 9.782 9.782 0 0 0 3.316 2.871 15.782 15.782 0 0 0 4.637 1.489 29.818 29.818 0 0 0 10.233.022 13.82 13.82 0 0 0 4.4-1.457 9.31 9.31 0 0 0 3.237-2.883 7.728 7.728 0 0 0 1.255-4.474 5.7 5.7 0 0 0-.878-3.226 7.206 7.206 0 0 0-2.265-2.159 12.806 12.806 0 0 0-3.137-1.364 40.771 40.771 0 0 0-3.531-.848c-1.146-.229-2.3-.447-3.422-.647s-2.109-.422-2.938-.659a6.2 6.2 0 0 1-1.981-.905 1.42 1.42 0 0 1-.644-1.213 1.332 1.332 0 0 1 .346-.979 2.623 2.623 0 0 1 .98-.62 5.192 5.192 0 0 1 1.372-.3c.487-.049.979-.074 1.462-.074l.035-.015 16.387.249L32.876 52.3h8.893l8.413-17.285.948 17.285h9.116l11.843-21.024 15.874-.3c.332.019.678.051 1.038.1a5.911 5.911 0 0 1 1.56.432 3.309 3.309 0 0 1 1.156.834 1.9 1.9 0 0 1 .417 1.3 1.939 1.939 0 0 1-.559 1.54 4.344 4.344 0 0 1-1.917.838 24.092 24.092 0 0 1-3.476.459c-1.384.093-3.025.237-5.014.442A17.059 17.059 0 0 0 72.6 39.74a7.376 7.376 0 0 0-3.125 6.2 6.154 6.154 0 0 0 .616 2.693 6.425 6.425 0 0 0 1.87 2.4 10.27 10.27 0 0 0 3.179 1.638 15.247 15.247 0 0 0 4.343.559 17.41 17.41 0 0 0 5.12-1.049 10.809 10.809 0 0 0 3.562-1.87v1.87h9.069l-.127-.393a4.207 4.207 0 0 1-.265-1.335m-7.11-8.36a14.857 14.857 0 0 1-.838 2 5.873 5.873 0 0 1-1.322 1.723 6.858 6.858 0 0 1-2.061 1.248 8.358 8.358 0 0 1-3.045.487 6.273 6.273 0 0 1-2.948-.667 1.892 1.892 0 0 1-1.136-1.775 3 3 0 0 1 .447-1.708 3.323 3.323 0 0 1 1.206-1.073 6.69 6.69 0 0 1 1.822-.621 18.753 18.753 0 0 1 2.184-.311c1.192-.065 2.4-.156 3.579-.273a9.751 9.751 0 0 0 2.633-.619z" transform="translate(0 -10.97)" style="fill:#005bac"/>
        <path data-name="Path 11749" d="m369.378 13.127 6.476-8.814 15.237-.013-6.638 8.769 6.849 8.7H375.2zM372.828 0l-9.288 13.233 9.587 13.057h26.3l-9.856-13.049L399.487 0z" transform="translate(-157.119)" style="fill:#005bac"/>
        <path data-name="Path 11750" d="m369.379 65.491 6.475-8.814 15.237-.009-6.638 8.77 6.85 8.694H375.2zm3.45-13.125L363.54 65.6l9.587 13.058h26.3l-9.856-13.049 9.921-13.24z" transform="translate(-157.119 -22.632)" style="fill:#005bac"/>
        <path data-name="Path 11751" d="M334.875 48.037h-16.1l6.85-8.7-6.64-8.768 15.238.008 6.476 8.814zm2.373-21.769H310.59l9.921 13.241-9.856 13.047h26.3l9.583-13.056z" transform="translate(-134.234 -11.353)" style="fill:#005bac"/>
    </g>
</svg>
