<svg data-name="Icon Graphic - Large" xmlns="http://www.w3.org/2000/svg" width="180" height="180" viewBox="0 0 180 180">
    <circle data-name="Ellipse 499" cx="90" cy="90" r="90" style="fill:#e5eef7"/>
    <circle data-name="Ellipse 507" cx="80" cy="80" r="80" transform="translate(10 10)" style="fill:#fff;opacity:.7"/>
    <path data-name="Path 11771" d="M-35-26.25a35 35 0 0 1 35-35 35 35 0 0 1 35 35 35 35 0 0 1-35 35 35 35 0 0 1-35-35zm50.832-6.043a3.837 3.837 0 0 0 0-5.414 3.837 3.837 0 0 0-5.414 0L-4.375-22.914l-6.043-6.043a3.837 3.837 0 0 0-5.414 0 3.837 3.837 0 0 0 0 5.414l8.75 8.75a3.837 3.837 0 0 0 5.414 0z" transform="translate(90 116)" style="fill:#005bac"/>
</svg>
