<svg data-name="Icon Graphic - Large, Help Screens" xmlns="http://www.w3.org/2000/svg" width="180" height="180" viewBox="0 0 180 180">
    <circle data-name="Ellipse 499" cx="90" cy="90" r="90" style="fill:#e5eef7"/>
    <circle data-name="Ellipse 507" cx="80" cy="80" r="80" transform="translate(10 10)" style="fill:#fff;opacity:.7"/>
    <path data-name="Path 11772" d="M0-61.25a35 35 0 0 0-35 35 35 35 0 0 0 35 35 35 35 0 0 0 35-35 35 35 0 0 0-35-35zm0 17.5a9.844 9.844 0 0 1 9.844 9.844A9.841 9.841 0 0 1 0-24.062a9.845 9.845 0 0 1-9.844-9.844A9.841 9.841 0 0 1 0-43.75zM0 0a26.18 26.18 0 0 1-18.553-7.7 15.217 15.217 0 0 1 14.178-9.8h8.75a15.2 15.2 0 0 1 14.178 9.8A26.17 26.17 0 0 1 0 0z" transform="translate(90 116)" style="fill:#005bac"/>
</svg>
