<svg data-name="Circle Icon - Small" xmlns="http://www.w3.org/2000/svg" width="40" height="40" viewBox="0 0 40 40">
    <circle data-name="Ellipse 466" cx="15" cy="15" r="15" style="fill:#005bac"/>
    <path data-name="Path 11807" d="M1.5-6A1.5 1.5 0 0 0 0-7.5 1.5 1.5 0 0 0-1.5-6 1.5 1.5 0 0 0 0-4.5 1.5 1.5 0 0 0 1.5-6zm3.75-1.5A1.5 1.5 0 0 0 3.75-6a1.5 1.5 0 0 0 1.5 1.5A1.5 1.5 0 0 0 6.75-6a1.5 1.5 0 0 0-1.5-1.5zm-10.5 0A1.5 1.5 0 0 0-6.75-6a1.5 1.5 0 0 0 1.5 1.5A1.5 1.5 0 0 0-3.75-6a1.5 1.5 0 0 0-1.5-1.5z" transform="translate(15 21.4)" style="fill:#e5eef7"/>
</svg>
