<svg data-name="Connecter type icon circle - small" xmlns="http://www.w3.org/2000/svg" width="30" height="30" viewBox="0 0 30 30">
    <g data-name="Group 17260">
        <circle data-name="Ellipse 466" cx="15" cy="15" r="15" style="fill:#e5eef7"/>
    </g>
    <g data-name="Group 17560">
        <path data-name="Path 11638" d="M8.125 13.808A7.87 7.87 0 0 0 15.8 5.759 8.24 8.24 0 0 0 13.868.416L8.617.455h-.409L2.35.416A8.245 8.245 0 0 0 .415 5.759a7.87 7.87 0 0 0 7.68 8.048z" transform="translate(6.891 7.889)" style="stroke:#005bac;stroke-miterlimit:10;stroke-width:1.3px;fill:none"/>
        <g data-name="Group 17564">
            <path data-name="Path 11639" d="M3.77 8.834A1.778 1.778 0 0 1 5.5 7.1a1.734 1.734 0 0 1 0 3.468 1.7 1.7 0 0 1-1.73-1.734" transform="translate(7.414 8.933)" style="fill:#005bac;fill-rule:evenodd"/>
            <path data-name="Path 11640" d="M9.2 7.1a1.734 1.734 0 1 0 1.734 1.734A1.778 1.778 0 0 0 9.2 7.1" transform="translate(7.991 8.933)" style="fill:#005bac;fill-rule:evenodd"/>
            <path data-name="Path 11641" d="M1.77 5.634A1.778 1.778 0 0 1 3.5 3.9a1.778 1.778 0 0 1 1.738 1.734A1.778 1.778 0 0 1 3.5 7.368a1.778 1.778 0 0 1-1.73-1.734" transform="translate(7.102 8.433)" style="fill:#005bac;fill-rule:evenodd"/>
            <path data-name="Path 11642" d="M7.3 3.9a1.778 1.778 0 0 0-1.73 1.734A1.778 1.778 0 0 0 7.3 7.368a1.778 1.778 0 0 0 1.738-1.734A1.778 1.778 0 0 0 7.3 3.9" transform="translate(7.695 8.433)" style="fill:#005bac;fill-rule:evenodd"/>
            <path data-name="Path 11643" d="M9.37 5.634a1.734 1.734 0 1 1 3.468 0 1.734 1.734 0 1 1-3.468 0" transform="translate(8.288 8.433)" style="fill:#005bac;fill-rule:evenodd"/>
            <path data-name="Path 11644" d="M5.326 1.5a1.156 1.156 0 1 0 1.156 1.156A1.089 1.089 0 0 0 5.326 1.5" transform="translate(7.476 8.059)" style="fill:#005bac;fill-rule:evenodd"/>
            <path data-name="Path 11645" d="M7.97 2.656a1.156 1.156 0 1 1 1.156 1.156A1.089 1.089 0 0 1 7.97 2.656" transform="translate(8.069 8.059)" style="fill:#005bac;fill-rule:evenodd"/>
        </g>
        <path data-name="Rectangle 5179" transform="translate(6.826 7.824)" style="fill:none" d="M0 0h16.348v14.352H0z"/>
    </g>
</svg>
