<svg data-name="2.1.12 Social Button" xmlns="http://www.w3.org/2000/svg" width="30.625" height="30.625" viewBox="0 0 30.625 30.625">
    <path data-name="Path 11810" d="M12.031-28.437h-24.062a3.283 3.283 0 0 0-3.281 3.281v24.062a3.283 3.283 0 0 0 3.281 3.281h9.382V-8.224h-4.307v-4.9h4.307v-3.736c0-4.249 2.529-6.6 6.4-6.6a26.093 26.093 0 0 1 3.8.331v4.17H5.412a2.451 2.451 0 0 0-2.763 2.648v3.182h4.7L6.6-8.224H2.649V2.187h9.382a3.283 3.283 0 0 0 3.281-3.281v-24.062a3.283 3.283 0 0 0-3.281-3.281z" transform="translate(15.313 28.437)" style="fill:#1d1d1b"/>
</svg>
