<svg data-name="2.1.12 Social Button" xmlns="http://www.w3.org/2000/svg" width="30.625" height="30.625" viewBox="0 0 30.625 30.625">
    <path data-name="Path 11812" d="M0-16.771a3.648 3.648 0 0 0-3.645 3.646A3.648 3.648 0 0 0 0-9.479a3.648 3.648 0 0 0 3.646-3.646A3.651 3.651 0 0 0 0-16.771zm8.525-2.8a3.7 3.7 0 0 0-2.079-2.079c-1.436-.567-4.854-.44-6.446-.44s-5.007-.132-6.447.44a3.7 3.7 0 0 0-2.079 2.079c-.566 1.436-.44 4.857-.44 6.448s-.126 5.009.442 6.449A3.7 3.7 0 0 0-6.444-4.6c1.436.567 4.854.44 6.447.44s5.007.132 6.446-.44a3.7 3.7 0 0 0 2.079-2.077c.571-1.436.44-4.857.44-6.448s.131-5.008-.44-6.448zM0-7.52a5.608 5.608 0 0 1-5.605-5.605A5.608 5.608 0 0 1 0-18.73a5.608 5.608 0 0 1 5.605 5.605v.007a5.6 5.6 0 0 1-5.6 5.6zm5.836-10.137a1.309 1.309 0 0 1-1.308-1.308 1.309 1.309 0 0 1 1.308-1.308 1.309 1.309 0 0 1 1.308 1.308v.006a1.306 1.306 0 0 1-1.3 1.306zm6.195-10.78h-24.062a3.283 3.283 0 0 0-3.281 3.281v24.062a3.283 3.283 0 0 0 3.281 3.281h24.062a3.283 3.283 0 0 0 3.281-3.281v-24.062a3.283 3.283 0 0 0-3.281-3.281zm-1.17 19.824a6.5 6.5 0 0 1-1.767 4.58 6.507 6.507 0 0 1-4.58 1.767c-1.805.1-7.218.1-9.023 0A6.516 6.516 0 0 1-9.09-4.033a6.485 6.485 0 0 1-1.767-4.58c-.1-1.806-.1-7.219 0-9.023a6.483 6.483 0 0 1 1.767-4.58 6.519 6.519 0 0 1 4.58-1.762c1.805-.1 7.218-.1 9.023 0a6.508 6.508 0 0 1 4.58 1.767 6.508 6.508 0 0 1 1.767 4.583c.103 1.799.103 7.207.001 9.015z" transform="translate(15.313 28.437)" style="fill:#1d1d1b"/>
</svg>
