<svg data-name="2.1.12 Social Button" xmlns="http://www.w3.org/2000/svg" width="30.625" height="30.625" viewBox="0 0 30.625 30.625">
    <path data-name="Path 11809" d="M13.125-28.437h-26.257a2.2 2.2 0 0 0-2.181 2.208V-.02a2.2 2.2 0 0 0 2.181 2.208h26.257A2.2 2.2 0 0 0 15.312-.02v-26.209a2.2 2.2 0 0 0-2.187-2.208zM-6.057-2.187H-10.6V-16.8h4.55v14.613zM-8.326-18.8a2.633 2.633 0 0 1-2.632-2.632 2.633 2.633 0 0 1 2.632-2.632 2.637 2.637 0 0 1 2.632 2.632A2.629 2.629 0 0 1-8.326-18.8zM10.958-2.187H6.419V-9.3c0-1.7-.034-3.876-2.358-3.876-2.365 0-2.728 1.846-2.728 3.753v7.232h-4.539V-16.8h4.354v2h.062a4.781 4.781 0 0 1 4.3-2.358c4.594 0 5.448 3.028 5.448 6.966z" transform="translate(15.313 28.437)" style="fill:#1d1d1b"/>
</svg>
