<svg data-name="2.1.12 Social Button" xmlns="http://www.w3.org/2000/svg" width="30.625" height="30.625" viewBox="0 0 30.625 30.625">
    <path data-name="Path 11811" d="M5.063 2.563A4.379 4.379 0 0 0 .688 6.938v21.875a4.379 4.379 0 0 0 4.375 4.375h21.875a4.379 4.379 0 0 0 4.375-4.375V6.938a4.379 4.379 0 0 0-4.375-4.375zM25.372 8.3l-7.1 8.107 8.347 11.033h-6.531l-5.113-6.692-5.859 6.697H5.869l7.588-8.675L5.452 8.3h6.7l4.628 6.118L22.125 8.3zm-2.584 17.2L11.174 10.144H9.239L20.983 25.5h1.8z" transform="translate(-.688 -2.563)" style="fill:#1d1d1b"/>
</svg>
