<svg xmlns="http://www.w3.org/2000/svg" width="30.625" height="30.625" viewBox="0 0 30.625 30.625">
    <g data-name="2.1.12 Social Button">
        <path data-name="Path 11813" d="M-2.543-16.81v7.4l6.508-3.7zm17.855-8.347a3.282 3.282 0 0 0-3.281-3.281h-24.062a3.282 3.282 0 0 0-3.281 3.281v24.063a3.282 3.282 0 0 0 3.281 3.281h24.062a3.282 3.282 0 0 0 3.281-3.281zM12.441-13.1a32.748 32.748 0 0 1-.52 6.022 3.075 3.075 0 0 1-2.2 2.178C7.786-4.375 0-4.375 0-4.375s-7.786 0-9.721-.52a3.075 3.075 0 0 1-2.2-2.181 32.849 32.849 0 0 1-.52-6.029 32.809 32.809 0 0 1 .52-6.029 3.12 3.12 0 0 1 2.2-2.215C-7.786-21.875 0-21.875 0-21.875s7.786 0 9.721.526a3.12 3.12 0 0 1 2.2 2.215 32.849 32.849 0 0 1 .52 6.034z" transform="translate(15.313 28.437)" style="fill:#1d1d1b"/>
    </g>
</svg>
